<?xml version="1.0" encoding="UTF-8"?>
<mxfile host="app.diagrams.net" modified="2025-09-16T00:00:00.000Z" agent="chatgpt">
  <diagram name="Pscore Workflow">
    <mxGraphModel dx="1200" dy="800" grid="1" gridSize="10" guides="1" tooltips="1" connect="1" arrows="1" fold="1" page="1" pageScale="1" pageWidth="827" pageHeight="1169">
      <root>
        <mxCell id="0"/>
        <mxCell id="1" parent="0"/>

        <!-- Boxes -->
        <mxCell id="b1" value="数据预处理阶段\n1. 转换时间列\n2. 初始化告警标志\n3. 初始化平滑值列" style="rounded=1;whiteSpace=wrap;html=1;strokeColor=#000000;fillColor=#FFFFFF;" vertex="1" parent="1">
          <mxGeometry x="260" y="20" width="320" height="80" as="geometry"/>
        </mxCell>

        <mxCell id="b2" value="信号处理阶段\n- Butterworth滤波\n- 低通(fs=1.0)\n- 按测点分组\n- 异常处理保护" style="rounded=1;whiteSpace=wrap;html=1;strokeColor=#000000;fillColor=#FFFFFF;" vertex="1" parent="1">
          <mxGeometry x="260" y="120" width="320" height="100" as="geometry"/>
        </mxCell>

        <mxCell id="b3" value="历史数据分析\n- 按测点循环 (point_1173)\n- 获取新数据\n- 读取前3天历史" style="rounded=1;whiteSpace=wrap;html=1;strokeColor=#000000;fillColor=#FFFFFF;" vertex="1" parent="1">
          <mxGeometry x="260" y="250" width="320" height="100" as="geometry"/>
        </mxCell>

        <mxCell id="b4" value="Pscore计算逻辑\n1. 计算中位数\n2. 计算四分位距\n3. Pscore = (新-中位数)/四分位距" style="rounded=1;whiteSpace=wrap;html=1;strokeColor=#000000;fillColor=#FFFFFF;" vertex="1" parent="1">
          <mxGeometry x="260" y="380" width="320" height="100" as="geometry"/>
        </mxCell>

        <mxCell id="b5" value="加油决策树\nPscore &gt;= 7.5?" style="rounded=1;whiteSpace=wrap;html=1;strokeColor=#000000;fillColor=#FFFFFF;" vertex="1" parent="1">
          <mxGeometry x="260" y="520" width="320" height="60" as="geometry"/>
        </mxCell>

        <mxCell id="b6_no" value="不处理" style="rounded=1;whiteSpace=wrap;html=1;strokeColor=#000000;fillColor=#FFFFFF;" vertex="1" parent="1">
          <mxGeometry x="60" y="620" width="160" height="60" as="geometry"/>
        </mxCell>

        <mxCell id="b6_yes" value="查历史" style="rounded=1;whiteSpace=wrap;html=1;strokeColor=#000000;fillColor=#FFFFFF;" vertex="1" parent="1">
          <mxGeometry x="460" y="620" width="160" height="60" as="geometry"/>
        </mxCell>

        <mxCell id="b7" value="最近加油判断\n有历史记录?" style="rounded=1;whiteSpace=wrap;html=1;strokeColor=#000000;fillColor=#FFFFFF;" vertex="1" parent="1">
          <mxGeometry x="440" y="720" width="320" height="80" as="geometry"/>
        </mxCell>

        <mxCell id="b8_nohist" value="直接加油" style="rounded=1;whiteSpace=wrap;html=1;strokeColor=#000000;fillColor=#FFFFFF;" vertex="1" parent="1">
          <mxGeometry x="160" y="840" width="160" height="60" as="geometry"/>
        </mxCell>

        <mxCell id="b8_hist" value="时间判断" style="rounded=1;whiteSpace=wrap;html=1;strokeColor=#000000;fillColor=#FFFFFF;" vertex="1" parent="1">
          <mxGeometry x="440" y="840" width="160" height="60" as="geometry"/>
        </mxCell>

        <mxCell id="b9" value="时间间隔处理\n&lt;=6小时?\n是: 报警逻辑   否: 再次加油" style="rounded=1;whiteSpace=wrap;html=1;strokeColor=#000000;fillColor=#FFFFFF;" vertex="1" parent="1">
          <mxGeometry x="320" y="940" width="320" height="100" as="geometry"/>
        </mxCell>

        <mxCell id="b10" value="报警冷却逻辑\n1. 查最近报警\n2. 计算时间差\n3. &gt;=2小时→允许报警\n4. &lt;2小时→跳过报警" style="rounded=1;whiteSpace=wrap;html=1;strokeColor=#000000;fillColor=#FFFFFF;" vertex="1" parent="1">
          <mxGeometry x="320" y="1080" width="320" height="120" as="geometry"/>
        </mxCell>

        <mxCell id="b11" value="结果更新\n1. 更新加油指令\n2. 更新报警状态\n3. 记录Pscore" style="rounded=1;whiteSpace=wrap;html=1;strokeColor=#000000;fillColor=#FFFFFF;" vertex="1" parent="1">
          <mxGeometry x="320" y="1240" width="320" height="100" as="geometry"/>
        </mxCell>

        <mxCell id="b12" value="输出结果\n- 筛选显示: 加油指令为1\n- 报警推送为1\n- Pscore &gt;= 7.5" style="rounded=1;whiteSpace=wrap;html=1;strokeColor=#000000;fillColor=#FFFFFF;" vertex="1" parent="1">
          <mxGeometry x="320" y="1400" width="320" height="100" as="geometry"/>
        </mxCell>

        <!-- Connectors -->
        <mxCell id="e1" style="edgeStyle=orthogonalEdgeStyle;rounded=0;orthogonalLoop=1;jettySize=auto;html=1;" edge="1" parent="1" source="b1" target="b2">
          <mxGeometry relative="1" as="geometry"/>
        </mxCell>
        <mxCell id="e2" style="edgeStyle=orthogonalEdgeStyle;rounded=0;orthogonalLoop=1;jettySize=auto;html=1;" edge="1" parent="1" source="b2" target="b3">
          <mxGeometry relative="1" as="geometry"/>
        </mxCell>
        <mxCell id="e3" style="edgeStyle=orthogonalEdgeStyle;rounded=0;orthogonalLoop=1;jettySize=auto;html=1;" edge="1" parent="1" source="b3" target="b4">
          <mxGeometry relative="1" as="geometry"/>
        </mxCell>
        <mxCell id="e4" style="edgeStyle=orthogonalEdgeStyle;rounded=0;orthogonalLoop=1;jettySize=auto;html=1;" edge="1" parent="1" source="b4" target="b5">
          <mxGeometry relative="1" as="geometry"/>
        </mxCell>

        <!-- Decision split -->
        <mxCell id="e5" style="edgeStyle=orthogonalEdgeStyle;rounded=0;orthogonalLoop=1;jettySize=auto;html=1;" edge="1" parent="1" source="b5" target="b6_no">
          <mxGeometry relative="1" as="geometry"/>
        </mxCell>
        <mxCell id="e6" style="edgeStyle=orthogonalEdgeStyle;rounded=0;orthogonalLoop=1;jettySize=auto;html=1;" edge="1" parent="1" source="b5" target="b6_yes">
          <mxGeometry relative="1" as="geometry"/>
        </mxCell>

        <mxCell id="e7" style="edgeStyle=orthogonalEdgeStyle;rounded=0;orthogonalLoop=1;jettySize=auto;html=1;" edge="1" parent="1" source="b6_yes" target="b7">
          <mxGeometry relative="1" as="geometry"/>
        </mxCell>

        <mxCell id="e8" style="edgeStyle=orthogonalEdgeStyle;rounded=0;orthogonalLoop=1;jettySize=auto;html=1;" edge="1" parent="1" source="b7" target="b8_nohist">
          <mxGeometry relative="1" as="geometry"/>
        </mxCell>
        <mxCell id="e9" style="edgeStyle=orthogonalEdgeStyle;rounded=0;orthogonalLoop=1;jettySize=auto;html=1;" edge="1" parent="1" source="b7" target="b8_hist">
          <mxGeometry relative="1" as="geometry"/>
        </mxCell>

        <mxCell id="e10" style="edgeStyle=orthogonalEdgeStyle;rounded=0;orthogonalLoop=1;jettySize=auto;html=1;" edge="1" parent="1" source="b8_hist" target="b9">
          <mxGeometry relative="1" as="geometry"/>
        </mxCell>

        <mxCell id="e11" style="edgeStyle=orthogonalEdgeStyle;rounded=0;orthogonalLoop=1;jettySize=auto;html=1;" edge="1" parent="1" source="b8_nohist" target="b9">
          <mxGeometry relative="1" as="geometry"/>
        </mxCell>

        <mxCell id="e12" style="edgeStyle=orthogonalEdgeStyle;rounded=0;orthogonalLoop=1;jettySize=auto;html=1;" edge="1" parent="1" source="b9" target="b10">
          <mxGeometry relative="1" as="geometry"/>
        </mxCell>

        <mxCell id="e13" style="edgeStyle=orthogonalEdgeStyle;rounded=0;orthogonalLoop=1;jettySize=auto;html=1;" edge="1" parent="1" source="b10" target="b11">
          <mxGeometry relative="1" as="geometry"/>
        </mxCell>

        <mxCell id="e14" style="edgeStyle=orthogonalEdgeStyle;rounded=0;orthogonalLoop=1;jettySize=auto;html=1;" edge="1" parent="1" source="b11" target="b12">
          <mxGeometry relative="1" as="geometry"/>
        </mxCell>

      </root>
    </mxGraphModel>
  </diagram>
</mxfile>
